<?xml version="1.0" encoding="UTF-8"?>
<svg id="Ebene_1" data-name="Ebene 1" xmlns="http://www.w3.org/2000/svg" viewBox="0 0 628 139">
  <defs>
    <style>
      .cls-1 {
        fill: #f8f8f5;
      }
    </style>
  </defs>
  <path class="cls-1" d="M.21,.22H18.77V44.86c5.44-9.92,15.2-15.36,26.72-15.36,16.96,0,27.68,11.04,27.68,32.16v50.56h-18.56V63.9c0-12.16-6.72-18.88-16.32-18.88-11.04,0-19.52,9.6-19.52,22.08v45.12H.21V.22Z"/>
  <path class="cls-1" d="M83.24,90.94c0-18.88,16.32-23.36,29.92-25.6l15.52-2.24c5.92-.96,7.36-4,7.36-7.68,0-6.56-4.48-11.84-14.4-11.84s-15.84,4.48-16.96,13.28h-18.56c2.24-17.92,16.48-27.36,35.68-27.36,21.76,0,32.64,10.4,32.64,29.92v34.56c0,2.24,1.6,3.68,3.84,3.68h4.32v14.56h-11.84c-8.16,0-13.28-4-13.28-10.24v-1.76c-7.04,10.24-17.6,14.08-28.16,14.08-15.84,0-26.08-9.28-26.08-23.36Zm32.16,9.28c12.8,0,20.64-10.56,20.64-23.84v-4.32c-2.4,1.28-4.64,1.76-7.36,2.4l-12,2.08c-10.08,1.76-14.56,5.6-14.56,12.48s5.28,11.2,13.28,11.2Z"/>
  <path class="cls-1" d="M170.28,84.06V31.58h18.72v48.96c0,12,6.72,18.24,16.64,18.24,10.56,0,18.88-8.64,18.88-21.12V31.58h18.72V112.22h-18.56v-12.96c-4.96,9.92-14.72,15.04-26.72,15.04-16.32,0-27.68-10.88-27.68-30.24Z"/>
  <path class="cls-1" d="M263.8,92.22V45.82h-12.64v-14.24h8.8c2.4,0,3.84-1.44,3.84-4V4.86h18.56V31.58h17.28v14.24h-17.28v42.4c0,6.72,2.08,9.44,8.32,9.44h10.88v14.56h-17.44c-13.44,0-20.32-6.08-20.32-20Z"/>
  <path class="cls-1" d="M319,.22h40.16V4.22h-35.36V134.78h35.36v4h-40.16V.22Z"/>
  <path class="cls-1" d="M350.68,31.58h18.56v12.16c5.44-9.12,15.84-14.24,26.72-14.24,18.08,0,28.8,11.68,28.8,32.16v50.56h-18.56V63.9c0-12.16-6.72-18.88-16.96-18.88-11.36,0-20,9.28-20,21.76v45.44h-18.56V31.58Z"/>
  <path class="cls-1" d="M434.84,90.94c0-18.88,16.32-23.36,29.92-25.6l15.52-2.24c5.92-.96,7.36-4,7.36-7.68,0-6.56-4.48-11.84-14.4-11.84s-15.84,4.48-16.96,13.28h-18.56c2.24-17.92,16.48-27.36,35.68-27.36,21.76,0,32.64,10.4,32.64,29.92v34.56c0,2.24,1.6,3.68,3.84,3.68h4.32v14.56h-11.84c-8.16,0-13.28-4-13.28-10.24v-1.76c-7.04,10.24-17.6,14.08-28.16,14.08-15.84,0-26.08-9.28-26.08-23.36Zm32.16,9.28c12.8,0,20.64-10.56,20.64-23.84v-4.32c-2.4,1.28-4.64,1.76-7.36,2.4l-12,2.08c-10.08,1.76-14.56,5.6-14.56,12.48s5.28,11.2,13.28,11.2Z"/>
  <path class="cls-1" d="M523.96,.22h18.56V44.86c5.44-9.92,15.2-15.36,26.72-15.36,16.96,0,27.68,11.04,27.68,32.16v50.56h-18.56V63.9c0-12.16-6.72-18.88-16.32-18.88-11.04,0-19.52,9.6-19.52,22.08v45.12h-18.56V.22Z"/>
  <path class="cls-1" d="M587.63,134.78h35.52V4.22h-35.52V.22h40.16V138.78h-40.16v-4Z"/>
</svg>